# xmcd CD database file
#
# Track frame offsets:
#	150
#	20255
#	40343
#	63336
#	92933
#	117782
#	143059
#	179488
#	225210
#	241673
#	263100
#	285771
#	317436
#
# Disc length: 4552 seconds
#
# Revision: 0
# Processed by: cddbd v1.5.1PL0 Copyright (c) Steve Scherf et al.
# Submitted via: CDex 1.51
#
DISCID=9d11c60d
DTITLE=Dansk Jazz 2003 - Jazz 2003
DYEAR=2003
DGENRE=Jazz
TTITLE0=Bugpowder - Bugpowder
TTITLE1=Chris Minh Doky - Tossed Salad and Scrambled Eggs
TTITLE2=Pelle Fridell - Go More
TTITLE3=Elektrazz - Last Heroes Of The Lost Sunset
TTITLE4=Susi Hyldgaard - Not Me
TTITLE5=Jakob Dinesen/Kurt Rosenwinkel - Everything Will Be All Right
TTITLE6=Christina von Bülow Trio - Sail Away
TTITLE7=Marilyn Mazur - Mess Ra
TTITLE8=Svend Asmussen - Down South Camp Meeting
TTITLE9=Thomas Clausen Trio - Leaves
TTITLE10=Mold - Tickets Please!
TTITLE11=Tim Berne and The Copnehagen Art Ensemble - The Legend of P-1
TTITLE12=Cecilie Norby - Hallelujah
EXTD=YEAR: 2003
EXTT0=
EXTT1=
EXTT2=
EXTT3=
EXTT4=
EXTT5=
EXTT6=
EXTT7=
EXTT8=
EXTT9=
EXTT10=
EXTT11=
EXTT12=
PLAYORDER=
